<svg height="512pt" viewBox="0 -32 512 512" width="512pt" xmlns="http://www.w3.org/2000/svg"><path d="m88 328h340.359375c41.777344 0 75.640625-28.65625 75.640625-64v-160l-416-48zm216-174.03125s80-60.640625 80 8.238281c0 68.882813-80 124.714844-80 124.714844s-80-55.84375-80-124.714844c0-68.871093 80-8.238281 80-8.238281zm-176 86.03125v48zm0 0" fill="#ff9811"/><path d="m432 408c0 17.671875-14.328125 32-32 32s-32-14.328125-32-32 14.328125-32 32-32 32 14.328125 32 32zm0 0" fill="#acabb1"/><path d="m160 408c0 17.671875-14.328125 32-32 32s-32-14.328125-32-32 14.328125-32 32-32 32 14.328125 32 32zm0 0" fill="#acabb1"/><path d="m304 286.921875s80-55.84375 80-124.714844c0-68.871093-80-8.238281-80-8.238281s-80-60.640625-80 8.238281c0 68.882813 80 124.714844 80 124.714844zm0 0" fill="#d80027"/><g fill="#231f20"><path d="m504.910156 96.054688-408.910156-47.183594v-40.871094c0-4.417969-3.582031-8-8-8h-80c-4.417969 0-8 3.582031-8 8s3.582031 8 8 8h72v360c0 4.417969 3.582031 8 8 8h8.207031c-5.292969 6.882812-8.175781 15.316406-8.207031 24 0 22.089844 17.910156 40 40 40s40-17.910156 40-40c-.03125-8.683594-2.914062-17.117188-8.207031-24h208.414062c-5.292969 6.882812-8.175781 15.316406-8.207031 24 0 22.089844 17.910156 40 40 40s40-17.910156 40-40-17.910156-40-40-40h-304v-32h332.367188c46.121093 0 83.632812-32.296875 83.632812-72v-160c-.003906-4.0625-3.050781-7.480469-7.089844-7.945312zm-352.910156 311.945312c0 13.253906-10.746094 24-24 24s-24-10.746094-24-24 10.746094-24 24-24 24 10.746094 24 24zm272 0c0 13.253906-10.746094 24-24 24s-24-10.746094-24-24 10.746094-24 24-24 24 10.746094 24 24zm72-144c0 30.871094-30.34375 56-67.632812 56h-332.367188v-255.023438l400 46.160157zm0 0"/><path d="m299.425781 293.480469c2.746094 1.917969 6.402344 1.917969 9.148438 0 3.425781-2.382813 83.425781-59.082031 83.425781-131.28125 0-19.3125-5.863281-32-17.433594-37.75-22.292968-11.097657-57.34375 10.511719-70.566406 19.664062-13.222656-9.152343-48.214844-30.753906-70.566406-19.664062-11.570313 5.734375-17.433594 18.398437-17.433594 37.75 0 72.199219 80 128.898437 83.425781 131.28125zm-58.882812-154.703125c2.328125-1.074219 4.871093-1.59375 7.433593-1.519532 14.886719 0 38.03125 13.132813 51.199219 23.085938 2.859375 2.164062 6.808594 2.164062 9.664063 0 13.183594-9.984375 44.855468-28.421875 58.617187-21.601562 5.671875 2.859374 8.542969 10.738281 8.542969 23.457031 0 54.625-55.496094 101.871093-72 114.722656-16.511719-12.800781-72-60-72-114.722656 0-12.71875 2.871094-20.597657 8.542969-23.421875zm0 0"/><path d="m128 296h48c4.417969 0 8-3.582031 8-8s-3.582031-8-8-8h-40v-40c0-4.417969-3.582031-8-8-8s-8 3.582031-8 8v48c0 4.417969 3.582031 8 8 8zm0 0"/><path d="m208 296h16c4.417969 0 8-3.582031 8-8s-3.582031-8-8-8h-16c-4.417969 0-8 3.582031-8 8s3.582031 8 8 8zm0 0"/></g></svg>