<svg height="512pt" viewBox="0 0 512 512" width="512pt" xmlns="http://www.w3.org/2000/svg"><path d="m512 256c0 141.386719-114.613281 256-256 256s-256-114.613281-256-256 114.613281-256 256-256 256 114.613281 256 256zm0 0" fill="#f03049"/><path d="m264.589844 511.839844c1.425781-.046875 2.851562-.089844 4.269531-.160156.855469-.042969 1.703125-.105469 2.550781-.15625 1.277344-.074219 2.550782-.144532 3.820313-.242188.90625-.066406 1.808593-.148438 2.710937-.226562 1.207032-.105469 2.414063-.203126 3.617188-.320313.933594-.09375 1.859375-.203125 2.789062-.304687 1.164063-.128907 2.332032-.253907 3.492188-.398438.945312-.117188 1.886718-.25 2.832031-.378906 1.136719-.152344 2.273437-.304688 3.402344-.472656.953125-.144532 1.902343-.296876 2.851562-.449219 1.113281-.179688 2.226563-.359375 3.335938-.554688.957031-.167969 1.910156-.34375 2.863281-.519531 1.089844-.203125 2.183594-.410156 3.269531-.628906.957031-.191406 1.914063-.390625 2.867188-.59375 1.074219-.226563 2.148437-.457032 3.21875-.699219.953125-.214844 1.90625-.4375 2.859375-.660156 1.058594-.253907 2.113281-.511719 3.171875-.773438.949219-.238281 1.898437-.484375 2.84375-.734375 1.046875-.273437 2.089843-.558594 3.128906-.84375.945313-.261718 1.886719-.527344 2.828125-.800781 1.03125-.296875 2.058594-.605469 3.085938-.917969.9375-.285156 1.878906-.570312 2.816406-.867187 1.011718-.320313 2.023437-.652344 3.03125-.984375.9375-.308594 1.871094-.617188 2.804687-.9375 1-.339844 1.988281-.695313 2.980469-1.050782.933594-.332031 1.867188-.660156 2.792969-1.003906.980469-.363281 1.953125-.738281 2.929687-1.113281.925782-.359375 1.855469-.710937 2.777344-1.074219.964844-.382812 1.917969-.78125 2.878906-1.175781.917969-.382813 1.84375-.753906 2.757813-1.144531.945312-.402344 1.878906-.820313 2.816406-1.230469.917969-.40625 1.84375-.804687 2.757813-1.21875.914062-.414063 1.8125-.847656 2.71875-1.269531.929687-.4375 1.859374-.863282 2.78125-1.304688.84375-.410156 1.679687-.835937 2.519531-1.253906 2.597656-1.292969 5.179687-2.617188 7.726562-3.992188.121094-.066406.246094-.125.363281-.191406 1.054688-.574218 2.097657-1.164062 3.144532-1.753906.703125-.394531 1.414062-.78125 2.113281-1.179688 1.011719-.578124 2.007813-1.179687 3.011719-1.769531.722656-.429687 1.453125-.847656 2.171875-1.285156.984375-.59375 1.957031-1.207031 2.933593-1.816406.722657-.449219 1.449219-.894531 2.167969-1.351563.96875-.617187 1.929688-1.253906 2.890625-1.882812.707032-.464844 1.417969-.925782 2.121094-1.398438.960938-.644531 1.910156-1.300781 2.859375-1.957031.691406-.476563 1.386719-.953125 2.074219-1.4375.945312-.667969 1.886718-1.347656 2.824218-2.027344.675782-.488281 1.347657-.976562 2.019532-1.472656.9375-.695313 1.867187-1.402344 2.796875-2.109375.652343-.496094 1.304687-.992188 1.953125-1.496094.933594-.726562 1.855468-1.457031 2.78125-2.195312.625-.503906 1.253906-1.007813 1.878906-1.515625.925781-.753907 1.84375-1.515625 2.761719-2.285157.605469-.503906 1.203125-1.011718 1.804687-1.523437.917969-.785156 1.832032-1.578125 2.742188-2.378906.578125-.503907 1.152344-1.015625 1.722656-1.527344.917969-.820313 1.828125-1.644531 2.734375-2.476563.542969-.503906 1.085937-1.011718 1.628906-1.515624.914063-.859376 1.828125-1.726563 2.734375-2.597657.507813-.492187 1.011719-.984375 1.515625-1.480469.921875-.902343 1.839844-1.8125 2.746094-2.730468.46875-.46875.925781-.945313 1.390625-1.421875.929688-.953125 1.859375-1.914063 2.773438-2.882813.414062-.441406.824218-.882812 1.234374-1.324218.949219-1.019532 1.898438-2.042969 2.832032-3.078126.34375-.382812.683594-.773437 1.023437-1.15625.988281-1.109374 1.972657-2.21875 2.9375-3.34375.242188-.28125.480469-.570312.722657-.851562 1.054687-1.238281 2.101562-2.480469 3.132812-3.738281.070312-.082031.136719-.167969.203125-.25 7.316406-8.941407 14.035156-18.386719 20.105469-28.273438.027344-.046875.054687-.089843.082031-.132812.925781-1.511719 1.832031-3.035157 2.726563-4.566407.113281-.191406.226562-.378906.335937-.570312.84375-1.449219 1.667969-2.910156 2.480469-4.375.15625-.28125.3125-.558594.46875-.839844.78125-1.417968 1.542968-2.847656 2.296875-4.285156.175781-.332031.351562-.660156.527343-.992188.730469-1.410156 1.445313-2.828124 2.152344-4.253906.183594-.363281.367188-.726562.546875-1.09375.691407-1.414062 1.367188-2.832031 2.035157-4.257812.179687-.382813.359374-.765625.539062-1.152344.65625-1.421875 1.296875-2.851562 1.929688-4.289062.171874-.390626.34375-.785157.515624-1.175782.625-1.445312 1.238282-2.894531 1.835938-4.351562.160156-.386719.320312-.777344.476562-1.171875.597657-1.46875 1.183594-2.945313 1.753907-4.429688.144531-.375.285156-.753906.429687-1.132812.570313-1.507813 1.128906-3.019531 1.671875-4.539063.125-.355468.25-.710937.375-1.066406.546875-1.550781 1.082031-3.109375 1.597657-4.679688.105468-.3125.207031-.628906.308593-.941406.527344-1.613281 1.042969-3.234375 1.535157-4.863281.078124-.253906.148437-.507813.226562-.757813.511719-1.699218 1.007812-3.40625 1.484375-5.117187.042969-.148437.082031-.300781.121094-.445313 4.230469-15.339843 7.070312-31.25 8.375-47.597656l.003906.003906c.222656-2.792968.402344-5.601562.53125-8.417968l-74.210937-74.210938-.398438 1.15625-104.59375-104.585937-257.992188 287.417969 128.503907 128.503906c6.378906 1.34375 12.847656 2.449218 19.390625 3.308594.039062.003906.078125.011718.117187.015624 2.0625.269532 4.132813.511719 6.210938.730469.144531.015625.289062.035157.433593.050781 1.949219.203126 3.90625.378907 5.871094.539063.269532.019531.539063.050781.8125.070313 1.832032.144531 3.675782.257812 5.519532.363281.398437.019531.789062.054687 1.1875.074219 1.769531.089843 3.550781.152343 5.332031.207031.464843.015625.925781.042969 1.390625.054687 2.234375.058594 4.476562.089844 6.722656.089844 2.15625 0 4.304688-.027344 6.449219-.082031.714843-.015625 1.429687-.054688 2.140625-.078125zm0 0" fill="#d1093a"/><path d="m74.507812 194.007812h362.984376v183.984376h-362.984376zm0 0" fill="#afb4c8"/><path d="m255.808594 194.007812h181.683594v183.984376h-181.683594zm0 0" fill="#9196aa"/><path d="m180.171875 302.695312-105.664063 75.296876h362.984376l-105.664063-75.296876c-22.136719-15.777343-48.644531-24.257812-75.828125-24.257812s-53.691406 8.480469-75.828125 24.257812zm0 0" fill="#cdd2e1"/><path d="m331.828125 302.695312c-22.136719-15.777343-48.644531-24.257812-75.828125-24.257812-.0625 0-.128906.003906-.191406.003906v99.550782h181.683594zm0 0" fill="#bec3d2"/><path d="m437.492188 194.007812-181.492188 134.210938-181.492188-134.210938zm0 0" fill="#fff"/><path d="m437.492188 194.007812h-181.683594v134.066407l.191406.144531zm0 0" fill="#e9edf5"/><path d="m367 171c0 61.304688-49.695312 111-111 111s-111-49.695312-111-111 49.695312-111 111-111 111 49.695312 111 111zm0 0" fill="#ffd400"/><path d="m256 60c-.0625 0-.128906.003906-.191406.003906v221.992188c.066406 0 .128906.003906.191406.003906 61.304688 0 111-49.695312 111-111s-49.695312-111-111-111zm0 0" fill="#fdba12"/><path d="m257.425781 189.5h-2.851562c-9.429688 0-17.074219-7.644531-17.074219-17.074219v-74.351562c0-9.429688 7.644531-17.074219 17.074219-17.074219h2.851562c9.429688 0 17.074219 7.644531 17.074219 17.074219v74.351562c0 9.429688-7.644531 17.074219-17.074219 17.074219zm0 0" fill="#414952"/><path d="m257.425781 81h-1.617187v108.5h1.617187c9.429688 0 17.074219-7.644531 17.074219-17.074219v-74.351562c0-9.429688-7.644531-17.074219-17.074219-17.074219zm0 0" fill="#23272b"/><path d="m257.425781 243.75h-2.851562c-9.429688 0-17.074219-7.644531-17.074219-17.074219 0-9.429687 7.644531-17.074219 17.074219-17.074219h2.851562c9.429688 0 17.074219 7.644532 17.074219 17.074219 0 9.429688-7.644531 17.074219-17.074219 17.074219zm0 0" fill="#414952"/><path d="m257.425781 209.601562h-1.617187v34.148438h1.617187c9.429688 0 17.074219-7.644531 17.074219-17.074219 0-9.429687-7.644531-17.074219-17.074219-17.074219zm0 0" fill="#23272b"/></svg>