<svg height="512pt" viewBox="0 0 512 512.00672" width="512pt" xmlns="http://www.w3.org/2000/svg"><path d="m401.070312 25.605469v153.601562l-307.199218 187.734375h-68.269532c-9.414062-.03125-17.035156-7.652344-17.066406-17.066406v-324.269531c.03125-9.414063 7.652344-17.039063 17.066406-17.066407h358.402344c9.414063.027344 17.039063 7.652344 17.066406 17.066407zm0 0" fill="#4527a0"/><path d="m401.070312 76.808594v102.398437l-70.398437 27.390625-236.800781 92.074219h-85.335938v-221.863281zm0 0" fill="#00838f"/><path d="m375.46875 25.605469v153.601562l-44.796875 27.390625-262.402344 160.34375h-42.667969c-9.414062-.03125-17.035156-7.652344-17.066406-17.066406v-324.269531c.03125-9.414063 7.652344-17.039063 17.066406-17.066407h332.800782c9.414062.027344 17.039062 7.652344 17.066406 17.066407zm0 0" fill="#673ab7"/><path d="m375.46875 76.808594v102.398437l-307.199219 119.464844h-59.734375v-221.863281zm0 0" fill="#00bcd4"/><path d="m110.9375 179.207031h375.464844c9.425781 0 17.066406 7.640625 17.066406 17.066407v290.132812c0 9.425781-7.640625 17.066406-17.066406 17.066406h-375.464844c-9.425781 0-17.066406-7.640625-17.066406-17.066406v-290.132812c0-9.425782 7.640625-17.066407 17.066406-17.066407zm0 0" fill="#ad1457"/><path d="m110.9375 179.207031h349.867188c9.425781 0 17.066406 7.640625 17.066406 17.066407v290.132812c0 9.425781-7.640625 17.066406-17.066406 17.066406h-349.867188c-9.425781 0-17.066406-7.640625-17.066406-17.066406v-290.132812c0-9.425782 7.640625-17.066407 17.066406-17.066407zm0 0" fill="#e91e63"/><path d="m93.871094 247.472656h409.597656v187.734375h-409.597656zm0 0" fill="#00838f"/><path d="m93.871094 247.472656h384v187.734375h-384zm0 0" fill="#00bcd4"/><path d="m332.804688 307.207031v-17.066406c0-4.714844-3.820313-8.535156-8.535157-8.535156h-51.199219c-4.714843 0-8.535156 3.820312-8.535156 8.535156v17.066406l10.242188 13.652344c9.101562 12.136719 9.101562 28.824219 0 40.960937l-10.242188 13.652344v17.066406c0 4.714844 3.820313 8.535157 8.535156 8.535157h51.199219c4.714844 0 8.535157-3.820313 8.535157-8.535157v-17.066406l-10.242188-13.652344c-9.101562-12.136718-9.101562-28.824218 0-40.960937zm0 0" fill="#fec108"/><path d="m486.402344 170.671875h-76.800782v-145.066406c0-14.136719-11.460937-25.5976565-25.597656-25.5976565h-358.402344c-14.136718 0-25.59765575 11.4609375-25.59765575 25.5976565v324.269531c0 14.136719 11.46093775 25.597656 25.59765575 25.597656h59.734376v110.933594c0 14.140625 11.460937 25.601562 25.601562 25.601562h375.464844c14.140625 0 25.601562-11.460937 25.601562-25.601562v-290.132812c0-14.136719-11.460937-25.601563-25.601562-25.601563zm-153.597656 0c-4.714844 0-8.535157 3.820313-8.535157 8.535156 0 4.710938 3.820313 8.53125 8.535157 8.53125h153.597656c4.714844 0 8.535156 3.824219 8.535156 8.535157v42.667968h-162.132812c-4.714844 0-8.535157 3.820313-8.535157 8.53125 0 4.714844 3.820313 8.535156 8.535157 8.535156h162.132812v170.664063h-392.535156v-170.664063h162.132812c4.714844 0 8.535156-3.820312 8.535156-8.535156 0-4.710937-3.820312-8.53125-8.535156-8.53125h-162.132812v-42.667968c0-4.710938 3.820312-8.535157 8.535156-8.535157h153.597656c4.714844 0 8.535156-3.820312 8.535156-8.53125 0-4.714843-3.820312-8.535156-8.535156-8.535156h-153.597656c-14.140625 0-25.601562 11.464844-25.601562 25.601563v93.867187h-68.265626v-204.800781h375.464844v85.332031zm-307.203126-153.597656h358.402344c4.710938 0 8.53125 3.820312 8.53125 8.53125v42.667969h-375.464844v-42.667969c0-4.710938 3.820313-8.53125 8.53125-8.53125zm0 341.332031c-4.710937 0-8.53125-3.820312-8.53125-8.53125v-42.667969h68.265626v51.199219zm460.800782 136.535156h-375.464844c-4.714844 0-8.535156-3.820312-8.535156-8.535156v-42.667969h392.535156v42.667969c0 4.714844-3.820312 8.535156-8.535156 8.535156zm0 0"/><path d="m136.535156 213.339844c0 4.714844-3.820312 8.535156-8.53125 8.535156-4.714844 0-8.535156-3.820312-8.535156-8.535156 0-4.710938 3.820312-8.53125 8.535156-8.53125 4.710938 0 8.53125 3.820312 8.53125 8.53125zm0 0"/><path d="m170.671875 213.339844c0 4.714844-3.824219 8.535156-8.535156 8.535156-4.710938 0-8.535157-3.820312-8.535157-8.535156 0-4.710938 3.824219-8.53125 8.535157-8.53125 4.710937 0 8.535156 3.820312 8.535156 8.53125zm0 0"/><path d="m204.804688 213.339844c0 4.714844-3.820313 8.535156-8.535157 8.535156-4.710937 0-8.53125-3.820312-8.53125-8.535156 0-4.710938 3.820313-8.53125 8.53125-8.53125 4.714844 0 8.535157 3.820312 8.535157 8.53125zm0 0"/><path d="m51.203125 42.671875c0 4.714844-3.820313 8.535156-8.53125 8.535156-4.714844 0-8.535156-3.820312-8.535156-8.535156 0-4.710937 3.820312-8.53125 8.535156-8.53125 4.710937 0 8.53125 3.820313 8.53125 8.53125zm0 0"/><path d="m85.335938 42.671875c0 4.714844-3.820313 8.535156-8.53125 8.535156-4.714844 0-8.535157-3.820312-8.535157-8.535156 0-4.710937 3.820313-8.53125 8.535157-8.53125 4.710937 0 8.53125 3.820313 8.53125 8.53125zm0 0"/><path d="m119.46875 42.671875c0 4.714844-3.820312 8.535156-8.53125 8.535156-4.714844 0-8.535156-3.820312-8.535156-8.535156 0-4.710937 3.820312-8.53125 8.535156-8.53125 4.710938 0 8.53125 3.820313 8.53125 8.53125zm0 0"/><path d="m307.203125 273.074219v-128c0-14.140625-11.460937-25.601563-25.601563-25.601563h-90.332031l2.5-2.5c3.234375-3.347656 3.1875-8.671875-.105469-11.960937-3.289062-3.292969-8.613281-3.339844-11.960937-.105469l-17.066406 17.066406c-1.605469 1.601563-2.507813 3.777344-2.507813 6.042969s.902344 4.441406 2.507813 6.042969l17.066406 17.066406c3.347656 3.230469 8.671875 3.1875 11.960937-.105469 3.292969-3.292969 3.339844-8.613281.105469-11.960937l-2.5-2.519532h90.332031c4.714844 0 8.535157 3.820313 8.535157 8.535157v128h-17.066407c-9.425781 0-17.066406 7.640625-17.066406 17.066406v17.066406c0 1.847657.597656 3.644531 1.707032 5.121094l10.238281 13.652344c6.78125 9.117187 6.78125 21.601562 0 30.71875l-10.238281 13.652343c-1.109376 1.480469-1.707032 3.277344-1.707032 5.121094v17.066406c0 9.425782 7.640625 17.066407 17.066406 17.066407h51.199219c9.425781 0 17.066407-7.640625 17.066407-17.066407v-17.066406c0-1.84375-.597657-3.640625-1.707032-5.121094l-10.238281-13.652343c-6.785156-9.117188-6.785156-21.601563 0-30.71875l10.238281-13.652344c1.109375-1.476563 1.707032-3.273437 1.707032-5.121094v-17.066406c0-9.425781-7.640626-17.066406-17.066407-17.066406zm17.066406 31.289062-8.53125 11.375c-11.308593 15.195313-11.308593 36.007813 0 51.203125l8.53125 11.382813v14.214843h-51.199219v-14.222656l8.53125-11.375c11.304688-15.195312 11.304688-36.003906 0-51.203125l-8.53125-11.363281v-14.234375h51.199219zm0 0"/><path d="m366.9375 341.339844c.03125 10.890625-2.566406 21.628906-7.578125 31.300781-1.648437 3.140625-1.183594 6.972656 1.167969 9.625 2.347656 2.65625 6.097656 3.578125 9.414062 2.320313l25.597656-9.609376c2.859376-1.066406 4.929688-3.574218 5.433594-6.582031.503906-3.007812-.636718-6.054687-2.988281-7.996093-2.351563-1.941407-5.5625-2.476563-8.417969-1.410157l-8.0625 3.035157c4.996094-20.09375 2.53125-41.320313-6.945312-59.730469-2.164063-4.1875-7.3125-5.828125-11.5-3.667969-4.1875 2.164062-5.828125 7.3125-3.664063 11.5 4.984375 9.648438 7.570313 20.355469 7.542969 31.214844zm0 0"/><path d="m230.402344 341.339844c-.03125-10.890625 2.566406-21.628906 7.578125-31.300782 1.648437-3.140624 1.183593-6.972656-1.167969-9.625-2.347656-2.65625-6.097656-3.578124-9.414062-2.320312l-25.597657 9.609375c-2.859375 1.066406-4.929687 3.574219-5.433593 6.582031-.503907 3.007813.636718 6.054688 2.988281 7.996094 2.351562 1.941406 5.5625 2.480469 8.417969 1.410156l8.0625-3.035156c-4.996094 20.09375-2.527344 41.320312 6.945312 59.730469 1.402344 2.710937 4.140625 4.46875 7.183594 4.609375 3.046875.144531 5.9375-1.351563 7.582031-3.917969 1.648437-2.566406 1.800781-5.8125.398437-8.523437-4.984374-9.648438-7.570312-20.355469-7.542968-31.214844zm0 0"/><path d="m477.871094 29.140625 2.5 2.5c3.347656 3.234375 8.667968 3.1875 11.960937-.105469 3.292969-3.289062 3.339844-8.613281.105469-11.960937l-17.066406-17.066407c-1.601563-1.605468-3.777344-2.507812-6.042969-2.507812s-4.441406.902344-6.042969 2.507812l-17.066406 17.066407c-3.234375 3.347656-3.1875 8.671875.105469 11.960937 3.292969 3.292969 8.613281 3.339844 11.960937.105469l2.519532-2.5v30.597656c0 4.714844 3.820312 8.535157 8.53125 8.535157 4.714843 0 8.535156-3.820313 8.535156-8.535157zm0 0"/><path d="m469.335938 85.339844c-4.710938 0-8.53125 3.820312-8.53125 8.535156v17.066406c0 4.710938 3.820312 8.53125 8.53125 8.53125 4.714843 0 8.535156-3.820312 8.535156-8.53125v-17.066406c0-4.714844-3.820313-8.535156-8.535156-8.535156zm0 0"/><path d="m34.136719 421.671875 2.5 2.5c2.144531 2.21875 5.316406 3.109375 8.300781 2.328125 2.980469-.78125 5.3125-3.109375 6.09375-6.09375s-.109375-6.15625-2.328125-8.300781l-17.066406-17.066407c-1.601563-1.605468-3.773438-2.503906-6.042969-2.503906-2.265625 0-4.441406.898438-6.039062 2.503906l-17.066407 17.066407c-3.234375 3.351562-3.1875 8.671875.101563 11.964843 3.292968 3.289063 8.613281 3.335938 11.960937.101563l2.519531-2.5v13.535156c0 4.710938 3.820313 8.53125 8.53125 8.53125 4.714844 0 8.535157-3.820312 8.535157-8.53125zm0 0"/><path d="m25.601562 460.808594c-4.710937 0-8.53125 3.820312-8.53125 8.53125v34.132812c0 4.714844 3.820313 8.535156 8.53125 8.535156 4.714844 0 8.535157-3.820312 8.535157-8.535156v-34.132812c0-4.710938-3.820313-8.53125-8.535157-8.53125zm0 0"/></svg>