<svg height="512pt" viewBox="-6 0 512 512.00016" width="512pt" xmlns="http://www.w3.org/2000/svg"><path d="m404.484375 400.136719c0 72.910156-52.703125 98.683593-122.101563 103.414062-8.425781.570313-17.109374.832031-25.972656.832031-81.785156 0-148.085937-22.472656-148.085937-104.246093 0-81.785157 66.300781-148.085938 148.085937-148.085938 8.863282 0 17.546875.78125 25.972656 2.273438 69.398438 12.277343 122.101563 72.890625 122.101563 145.8125zm0 0" fill="#beccd3"/><path d="m404.484375 400.136719c0 72.910156-52.703125 98.683593-122.101563 103.414062-69.394531-4.730469-122.109374-30.496093-122.109374-103.414062 0-72.921875 52.714843-133.535157 122.109374-145.8125 69.398438 12.277343 122.101563 72.890625 122.101563 145.8125zm0 0" fill="#dae6ed"/><path d="m365.023438 193.875c0 54.417969-39.117188 99.6875-90.761719 109.222656-6.59375 1.21875-13.386719 1.859375-20.320313 1.859375-61.34375 0-111.070312-49.726562-111.070312-111.082031 0-61.34375 49.726562-111.082031 111.070312-111.082031 6.933594 0 13.726563.640625 20.320313 1.859375 51.644531 9.546875 90.761719 54.816406 90.761719 109.222656zm0 0" fill="#beccd3"/><path d="m365.023438 193.875c0 54.417969-39.117188 99.6875-90.761719 109.222656-51.65625-9.535156-90.773438-54.804687-90.773438-109.222656 0-54.40625 39.117188-99.6875 90.773438-109.222656 51.644531 9.546875 90.761719 54.816406 90.761719 109.222656zm0 0" fill="#dae6ed"/><path d="m275.328125 38.277344-96.105469 52.488281-61.332031 33.5h-.011719c-12.246094-37.472656 3.523438-79.519531 39.371094-99.097656l13.421875-7.332031c6.722656-3.667969 13.71875-6.316407 20.839844-8.003907 30.796875-7.28125 63.578125 3.617188 83.816406 28.445313zm0 0" fill="#ef5361"/><path d="m176.460938 80.863281c3.523437 2.355469 4.164062 5.800781 2.761718 9.902344l-61.332031 33.5h-.011719c-12.246094-37.472656 3.523438-79.519531 39.371094-99.097656l13.421875-7.332031c6.722656-3.667969 13.71875-6.316407 20.839844-8.003907-20.839844 8.003907-36.792969 56.472657-15.050781 71.03125zm0 0" fill="#dc4250"/><path d="m306.246094 102.878906c-38.707032 11.089844-75.367188 28.039063-108.746094 50.195313-14.660156 9.726562-28.695312 20.460937-41.976562 32.128906-9.273438 8.132813-23.703126 5.535156-29.613282-5.289063l-15.699218-28.75c-4.253907-7.789062-2.628907-17.464843 3.902343-23.476562 14.125-12.988281 29.132813-24.878906 44.890625-35.59375 36.851563-25.089844 77.847656-43.773438 121.238282-55.136719 8.589843-2.246093 17.605468 1.613281 21.863281 9.402344l15.699219 28.746094c5.910156 10.824219.304687 24.375-11.558594 27.773437zm0 0" fill="#ef5361"/><path d="m197.5 153.074219c-14.660156 9.726562-28.695312 20.460937-41.976562 32.128906-9.273438 8.132813-23.703126 5.535156-29.613282-5.289063l-15.699218-28.75c-4.253907-7.789062-2.628907-17.464843 3.902343-23.476562 14.125-12.988281 29.132813-24.878906 44.890625-35.59375-12.996094 9.699219 16.15625 69.207031 38.46875 60.988281.007813 0 .019532-.007812.027344-.007812zm0 0" fill="#dc4250"/><path d="m220.910156 169.492188c0 9.21875-7.472656 16.691406-16.691406 16.691406s-16.691406-7.472656-16.691406-16.691406 7.472656-16.695313 16.691406-16.695313 16.691406 7.476563 16.691406 16.695313zm0 0" fill="#353a42"/><path d="m311.722656 169.492188c0 9.21875-7.472656 16.691406-16.695312 16.691406-9.21875 0-16.691406-7.472656-16.691406-16.691406s7.472656-16.695313 16.691406-16.695313c9.222656 0 16.695312 7.476563 16.695312 16.695313zm0 0" fill="#353a42"/><path d="m185.945312 472.335938c0 20.847656-14.011718 29.152343-33.132812 31.375-3.941406.46875-8.105469.671874-12.398438.671874-25.144531 0-45.523437-6.90625-45.523437-32.046874 0-25.144532 20.378906-45.535157 45.523437-45.535157 4.292969 0 8.457032.597657 12.398438 1.707031 19.121094 5.402344 33.132812 22.980469 33.132812 43.828126zm0 0" fill="#beccd3"/><path d="m417.917969 472.335938c0 20.847656-14.003907 29.152343-33.125 31.375-3.941407.46875-8.101563.671874-12.398438.671874-25.144531 0-45.523437-6.90625-45.523437-32.046874 0-25.144532 20.378906-45.535157 45.523437-45.535157 4.296875 0 8.457031.597657 12.398438 1.707031 19.121093 5.402344 33.125 22.980469 33.125 43.828126zm0 0" fill="#beccd3"/><path d="m185.945312 472.335938c0 20.847656-14.011718 29.152343-33.132812 31.375-19.121094-2.222657-33.125-10.527344-33.125-31.375 0-20.847657 14.003906-38.425782 33.125-43.828126 19.121094 5.402344 33.132812 22.980469 33.132812 43.828126zm0 0" fill="#dae6ed"/><path d="m417.917969 472.335938c0 20.847656-14.003907 29.152343-33.125 31.375-19.121094-2.222657-33.132813-10.527344-33.132813-31.375 0-20.847657 14.011719-38.425782 33.132813-43.828126 19.121093 5.402344 33.125 22.980469 33.125 43.828126zm0 0" fill="#dae6ed"/><path d="m279.652344 352.175781c0 10.511719-8.523438 19.035157-19.035156 19.035157-10.515626 0-19.039063-8.523438-19.039063-19.035157 0-10.515625 8.523437-19.039062 19.039063-19.039062 10.511718 0 19.035156 8.523437 19.035156 19.039062zm0 0" fill="#353a42"/><path d="m279.652344 418.429688c0 10.515624-8.523438 19.039062-19.035156 19.039062-10.515626 0-19.039063-8.523438-19.039063-19.039062 0-10.511719 8.523437-19.035157 19.039063-19.035157 10.511718 0 19.035156 8.523438 19.035156 19.035157zm0 0" fill="#353a42"/><path d="m295.027344 145.183594c-13.402344 0-24.304688 10.902344-24.304688 24.308594 0 13.402343 10.902344 24.308593 24.304688 24.308593 13.40625 0 24.3125-10.90625 24.3125-24.308593 0-13.40625-10.90625-24.308594-24.3125-24.308594zm0 33.386718c-5.003906 0-9.074219-4.074218-9.074219-9.078124 0-5.003907 4.070313-9.078126 9.074219-9.078126 5.007812 0 9.078125 4.074219 9.078125 9.078126 0 5.003906-4.070313 9.078124-9.078125 9.078124zm0 0"/><path d="m302.945312 202.46875c-13.089843 13.089844-30.492187 20.296875-49 20.296875-18.511718 0-35.910156-7.207031-49-20.296875-2.972656-2.972656-7.796874-2.972656-10.769531 0-2.972656 2.972656-2.972656 7.796875 0 10.769531 15.964844 15.964844 37.191407 24.757813 59.769531 24.757813 22.578126 0 43.804688-8.792969 59.769532-24.757813 2.972656-2.972656 2.972656-7.796875 0-10.769531s-7.796875-2.972656-10.769532 0zm0 0"/><path d="m260.617188 378.828125c14.695312 0 26.652343-11.957031 26.652343-26.652344 0-14.699219-11.957031-26.65625-26.652343-26.65625-14.699219 0-26.65625 11.957031-26.65625 26.65625 0 14.695313 11.957031 26.652344 26.65625 26.652344zm0-38.078125c6.296874 0 11.421874 5.125 11.421874 11.425781 0 6.296875-5.125 11.421875-11.421874 11.421875-6.300782 0-11.425782-5.125-11.425782-11.421875 0-6.300781 5.125-11.425781 11.425782-11.425781zm0 0"/><path d="m260.617188 445.085938c14.695312 0 26.652343-11.957032 26.652343-26.65625 0-14.695313-11.957031-26.652344-26.652343-26.652344-14.699219 0-26.65625 11.957031-26.65625 26.652344 0 14.699218 11.957031 26.65625 26.65625 26.65625zm0-38.078126c6.296874 0 11.421874 5.125 11.421874 11.421876 0 6.300781-5.125 11.421874-11.421874 11.421874-6.300782 0-11.425782-5.121093-11.425782-11.421874 0-6.296876 5.125-11.421876 11.425782-11.421876zm0 0"/><path d="m494.742188 240.683594-17.207032-11.132813 19.46875-16.222656c3.234375-2.691406 3.667969-7.496094.976563-10.726563-2.695313-3.230468-7.496094-3.667968-10.726563-.976562l-14.925781 12.4375v-14.199219c0-4.207031-3.410156-7.617187-7.617187-7.617187-4.207032 0-7.617188 3.410156-7.617188 7.617187v27.304688l-32.746094 32.746093v-8.265624c0-4.207032-3.410156-7.617188-7.617187-7.617188-4.203125 0-7.613281 3.410156-7.613281 7.617188v23.5l-29.640626 29.640624c-10.039062-12.933593-22.082031-24.261718-35.640624-33.480468 17.941406-20.800782 28.804687-47.871094 28.804687-77.433594 0-18.390625-4.09375-36.019531-12.167969-52.402344-1.859375-3.773437-6.425781-5.324218-10.199218-3.464844-3.773438 1.859376-5.324219 6.425782-3.460938 10.195313 7.03125 14.273437 10.597656 29.636719 10.597656 45.671875 0 57.050781-46.414062 103.464844-103.464844 103.464844-56.183593 0-102.050781-45.019532-103.429687-100.878906 3.652344-1.085938 7.074219-2.945313 10.03125-5.542969 6.441406-5.65625 13.085937-11.097657 19.90625-16.3125 2.355469 10.957031 12.113281 19.195312 23.765625 19.195312 13.402344 0 24.308594-10.90625 24.308594-24.308593 0-8.367188-4.246094-15.757813-10.699219-20.132813 28.371094-16.847656 58.902344-30.105469 90.515625-39.160156 1.457031-.417969 2.863281-.953125 4.207031-1.59375 8.398438 5.78125 15.882813 12.746093 22.28125 20.75 1.503907 1.882812 3.714844 2.863281 5.953125 2.863281 1.667969 0 3.34375-.542969 4.746094-1.667969 3.289062-2.625 3.824219-7.417969 1.199219-10.703125-6.605469-8.265625-14.230469-15.546875-22.714844-21.757812.628906-1.066406 1.199219-2.175782 1.683594-3.335938 3.171875-7.585937 2.730469-16.078125-1.210938-23.292968l-15.699219-28.75c-5.9375-10.867188-18.464843-16.265626-30.472656-13.125-.125.03125-.246094.066406-.367187.101562-28.070313-30.835938-73.902344-38.753906-110.929688-18.53125l-13.417969 7.328125c-37.027343 20.222656-55.136718 63.0625-44.367187 103.347656-.09375.085938-.1875.167969-.277344.253907-9.132812 8.402343-11.367187 21.863281-5.429687 32.734374l15.699218 28.746094c3.464844 6.34375 9.21875 10.941406 16.058594 12.933594.644532 29.542969 12.132813 56.457031 30.636719 76.914062-13.925781 9.957032-25.984375 22.027344-35.820313 35.652344l-81.199218-59.746094v-28.132812c0-4.207031-3.410156-7.617188-7.613282-7.617188-4.207031 0-7.617187 3.410157-7.617187 7.617188v22.453125l-24.375-5.511719c-4.105469-.929687-8.179687 1.644532-9.109375 5.746094-.925781 4.105469 1.648438 8.179688 5.75 9.109375l24.875 5.628906-7.226562 17.550781c-1.601563 3.890626.253906 8.34375 4.140624 9.945313.949219.390625 1.929688.574219 2.898438.574219 2.996094 0 5.835938-1.777344 7.046875-4.71875l6.949219-16.882813 77.164062 56.777344c-9.601562 16.492187-16.183594 34.773437-19.195312 54.027344-.652344 4.152343 2.191406 8.050781 6.34375 8.699219.402344.0625.796875.09375 1.1875.09375 3.6875 0 6.929687-2.683594 7.515625-6.441407 5.976562-38.183593 27.519531-72.140625 59.417969-94.019531 20.730468 17.667969 47.585937 28.351562 76.894531 28.351562 30.316406 0 58.011719-11.429687 79.011719-30.199218 18.441406 12.011718 33.929687 28.269531 44.996093 47.320312 12.371094 21.296875 18.910157 45.660156 18.910157 70.445313 0 8.523437-.789063 16.519531-2.324219 23.910156-6.746094-3.109375-14.246094-4.855469-22.148438-4.855469-29.300781 0-53.140625 23.839844-53.140625 53.140625 0 6.558594 1.25 12.425781 3.660156 17.5-18.511718 4.597657-40.808593 6.933594-66.503906 6.933594-25.699218 0-48-2.335937-66.511718-6.933594 2.410156-5.078125 3.660156-10.941406 3.660156-17.5 0-29.300781-23.839844-53.140625-53.140625-53.140625-7.914063 0-15.417969 1.75-22.171875 4.863282-1.109375-5.332032-1.820313-10.984376-2.128906-16.902344-.214844-4.199219-3.785157-7.425782-8-7.210938-4.199219.21875-7.425782 3.800782-7.210938 8 .460938 8.867188 1.75 17.261719 3.816406 25.054688-10.710937 9.726562-17.449218 23.761718-17.449218 39.335937 0 14.339844 5.902343 25.410157 17.074218 32.011719 8.714844 5.152344 20.515625 7.65625 36.066406 7.65625 15.554688 0 27.351563-2.503906 36.070313-7.65625.882813-.523438 1.722656-1.085938 2.542969-1.664062 21.304687 6.265624 46.675781 9.320312 77.382812 9.320312 30.703125 0 56.070313-3.054688 77.375-9.320312.820313.578124 1.660156 1.140624 2.542969 1.664062 8.714844 5.148438 20.511719 7.65625 36.066406 7.65625 15.554688 0 27.351563-2.503906 36.066407-7.65625 11.171874-6.605469 17.078124-17.671875 17.078124-32.011719 0-15.578125-6.738281-29.609375-17.453124-39.339843 2.65625-10.015626 4.011718-21.039063 4.011718-32.855469 0-27.472657-7.25-54.476563-20.972656-78.097657-.894531-1.546874-1.824219-3.070312-2.773438-4.582031l33.765626-33.769531s.003906-.003906.003906-.003906l43.625-43.621094 20.722656 13.410156c1.28125.828125 2.714844 1.222656 4.132812 1.222656 2.496094 0 4.941407-1.226562 6.398438-3.480468 2.285156-3.53125 1.273438-8.246094-2.257812-10.53125zm-290.523438-62.113282c-5.003906 0-9.078125-4.074218-9.078125-9.078124 0-5.003907 4.074219-9.078126 9.078125-9.078126s9.078125 4.074219 9.078125 9.078126c0 5.003906-4.074219 9.078124-9.078125 9.078124zm-43.316406-146.71875 13.417968-7.328124c28.523438-15.578126 63.308594-11.105469 86.863282 9.964843-50.734375 15.753907-98.167969 41.65625-138.84375 75.832031-4.996094-31.207031 10.042968-62.890624 38.5625-78.46875zm-28.308594 144.414063-15.699219-28.746094c-2.578125-4.71875-1.601562-10.566406 2.375-14.226562 46.039063-42.367188 102.371094-73.132813 162.902344-88.96875.996094-.261719 2.003906-.386719 2.996094-.386719 4.203125 0 8.167969 2.261719 10.253906 6.078125l15.699219 28.746094c1.714844 3.132812 1.90625 6.820312.527344 10.117187-1.367188 3.269532-4.101563 5.707032-7.496094 6.679688-56.429688 16.160156-109.5625 45.179687-153.660156 83.917968-2.652344 2.332032-6.175782 3.316407-9.667969 2.699219-3.519531-.621093-6.519531-2.777343-8.230469-5.910156zm7.820312 320.503906c-33.601562 0-37.910156-13.058593-37.910156-24.4375 0-20.902343 17.007813-37.910156 37.910156-37.910156 20.90625 0 37.910157 17.007813 37.910157 37.910156 0 11.378907-4.308594 24.4375-37.910157 24.4375zm269.890626-24.4375c0 11.378907-4.308594 24.4375-37.910157 24.4375-33.601562 0-37.910156-13.058593-37.910156-24.4375 0-20.902343 17.007813-37.910156 37.910156-37.910156 20.902344 0 37.910157 17.007813 37.910157 37.910156zm0 0"/></svg>