<svg height="480pt" viewBox="-104 0 480 480" width="480pt" xmlns="http://www.w3.org/2000/svg"><path d="m24 56h224c8.835938 0 16 7.164062 16 16v384c0 8.835938-7.164062 16-16 16h-224c-8.835938 0-16-7.164062-16-16v-384c0-8.835938 7.164062-16 16-16zm0 0" fill="#55b56a"/><path d="m72 8h128c8.835938 0 16 7.164062 16 16v32h-160v-32c0-8.835938 7.164062-16 16-16zm0 0" fill="#195c85"/><g fill="#fdbd40"><path d="m40 392h192v48h-192zm0 0"/><path d="m40 312h192v48h-192zm0 0"/><path d="m40 232h192v48h-192zm0 0"/></g><path d="m48 128h-16v-48h56v16h-40zm0 0" fill="#fff"/><path d="m104 80h32v16h-32zm0 0" fill="#fff"/><path d="m24 480h224c13.253906 0 24-10.746094 24-24v-384c0-13.253906-10.746094-24-24-24h-24v-24c0-13.253906-10.746094-24-24-24h-128c-13.253906 0-24 10.746094-24 24v24h-24c-13.253906 0-24 10.746094-24 24v384c0 13.253906 10.746094 24 24 24zm40-456c0-4.417969 3.582031-8 8-8h128c4.417969 0 8 3.582031 8 8v24h-144zm-48 48c0-4.417969 3.582031-8 8-8h224c4.417969 0 8 3.582031 8 8v384c0 4.417969-3.582031 8-8 8h-224c-4.417969 0-8-3.582031-8-8zm0 0"/><path d="m40 448h192c4.417969 0 8-3.582031 8-8v-48c0-4.417969-3.582031-8-8-8h-192c-4.417969 0-8 3.582031-8 8v48c0 4.417969 3.582031 8 8 8zm8-48h176v32h-176zm0 0"/><path d="m40 368h192c4.417969 0 8-3.582031 8-8v-48c0-4.417969-3.582031-8-8-8h-192c-4.417969 0-8 3.582031-8 8v48c0 4.417969 3.582031 8 8 8zm8-48h176v32h-176zm0 0"/><path d="m40 288h192c4.417969 0 8-3.582031 8-8v-48c0-4.417969-3.582031-8-8-8h-192c-4.417969 0-8 3.582031-8 8v48c0 4.417969 3.582031 8 8 8zm8-48h176v32h-176zm0 0"/><path d="m48 96h40v-16h-56v48h16zm0 0"/><path d="m104 80h32v16h-32zm0 0"/></svg>