<svg height="511pt" viewBox="-11 1 511 511.99899" width="511pt" xmlns="http://www.w3.org/2000/svg"><path d="m329.453125 24.539062v462.921876c0 9.371093-7.59375 16.964843-16.96875 16.964843h-287.445313c-9.371093 0-16.964843-7.59375-16.964843-16.964843v-462.921876c0-9.371093 7.59375-16.964843 16.964843-16.964843h287.445313c9.375 0 16.96875 7.59375 16.96875 16.964843zm0 0" fill="#c2eaf2"/><path d="m329.453125 24.539062v462.921876c0 9.371093-7.59375 16.964843-16.96875 16.964843h-247.9375c-9.375 0-16.96875-7.59375-16.96875-16.964843v-462.921876c0-9.371093 7.59375-16.964843 16.96875-16.964843h247.9375c9.375 0 16.96875 7.59375 16.96875 16.964843zm0 0" fill="#def4f8"/><g fill="#6dc54a"><path d="m481.285156 69.890625-108.914062 402.058594-5.59375 20.652343c-2.3125 8.523438-11.089844 13.5625-19.613282 11.25l-21.429687-5.808593c2.335937-2.898438 3.71875-6.582031 3.71875-10.582031v-462.921876c0-6.210937-3.332031-11.632812-8.3125-14.59375l51.210937 13.878907 97.691407 26.457031c8.515625 2.3125 13.554687 11.089844 11.242187 19.609375zm0 0"/><path d="m321.140625 9.945312-8.753906-2.371093h.097656c3.164063 0 6.121094.867187 8.65625 2.371093zm0 0"/><path d="m167.933594 426.070312c-36.777344 2.308594-55.878906 43.335938-60.050782 53.472657-.367187.90625-1.601562.992187-2.113281.164062-17.082031-27.714843-42.214843-15.167969-48.257812-11.582031-.65625.386719-1.511719.074219-1.730469-.652344-4.441406-14.625-25.34375-19.636718-29.675781-20.527344-.480469-.097656-.839844-.488281-.925781-.964843-1.902344-10.414063-10.164063-15.359375-15.261719-17.457031-1.035157-.425782-.9375-1.929688.140625-2.230469 7.183594-2.03125 10.996094-6.214844 13.007812-10.210938 1.816406-3.601562 2.179688-7.058593 2.238282-8.648437.023437-.546875.410156-1 .941406-1.109375 4.632812-.96875 25.136718-6.027344 29.53125-20.496094.222656-.726563 1.078125-1.046875 1.730468-.652344 6.046876 3.585938 31.191407 16.132813 48.273438-11.601562.511719-.828125 1.730469-.742188 2.113281.148437 2.832031 6.75 12.5 27.328125 29.851563 40.613282 8.285156 6.335937 18.308594 11.011718 30.1875 11.734374zm0 0"/><path d="m329.054688 428.523438c-5.09375 2.097656-13.355469 7.042968-15.257813 17.457031-.085937.476562-.445313.867187-.925781.964843-4.335938.890626-25.234375 5.902344-29.675782 20.527344-.222656.726563-1.074218 1.042969-1.730468.652344-6.046875-3.585938-31.175782-16.132812-48.261719 11.582031-.511719.828125-1.742187.742188-2.109375-.164062-4.171875-10.136719-23.277344-51.164063-60.054688-53.472657 11.878907-.722656 21.90625-5.398437 30.1875-11.734374 17.355469-13.285157 27.019532-33.863282 29.851563-40.613282.382813-.890625 1.601563-.976562 2.113281-.148437 17.082032 27.734375 42.226563 15.1875 48.273438 11.601562.65625-.394531 1.507812-.074219 1.730468.652344 4.394532 14.46875 24.902344 19.523437 29.53125 20.496094.53125.109375.917969.5625.945313 1.109375.058594 1.589844.417969 5.046875 2.234375 8.648437 2.015625 3.996094 5.824219 8.179688 13.011719 10.210938 1.078125.300781 1.175781 1.804687.136719 2.230469zm0 0"/></g><path d="m137.746094 414.335938c-17.371094 13.574218-27.039063 34.601562-29.863282 41.46875-.367187.902343-1.601562.996093-2.113281.164062-17.082031-27.710938-42.214843-15.171875-48.257812-11.582031-.65625.386719-1.511719.070312-1.730469-.65625-4.441406-14.625-25.34375-19.636719-29.675781-20.527344-.480469-.097656-.839844-.484375-.925781-.964844-.421876-2.3125-1.160157-4.351562-2.113282-6.15625 1.816406-3.601562 2.179688-7.058593 2.238282-8.652343.023437-.542969.410156-.996094.941406-1.105469 4.632812-.972657 25.136718-6.027344 29.53125-20.496094.222656-.726563 1.078125-1.046875 1.730468-.65625 6.046876 3.589844 31.191407 16.132813 48.273438-11.601563.511719-.824218 1.730469-.738281 2.113281.152344 2.832031 6.75 12.5 27.328125 29.851563 40.613282zm0 0" fill="#82cd64"/><path d="m315.90625 416.082031c-.949219 1.804688-1.691406 3.84375-2.109375 6.160157-.085937.476562-.445313.863281-.925781.960937-4.335938.894531-25.234375 5.90625-29.675782 20.527344-.222656.730469-1.074218 1.042969-1.730468.65625-6.046875-3.585938-31.175782-16.125-48.261719 11.582031-.511719.832031-1.742187.742188-2.109375-.164062-2.828125-6.867188-12.496094-27.890626-29.867188-41.464844 17.355469-13.289063 27.019532-33.867188 29.851563-40.613282.382813-.894531 1.601563-.980468 2.113281-.152343 17.082032 27.734375 42.226563 15.1875 48.273438 11.601562.65625-.394531 1.507812-.070312 1.730468.65625 4.394532 14.464844 24.902344 19.523438 29.53125 20.492188.53125.113281.917969.5625.945313 1.109375.058594 1.589844.417969 5.046875 2.234375 8.648437zm0 0" fill="#82cd64"/><path d="m222.390625 360.03125c-7.089844 2.917969-29.28125 13.136719-42.769531 31.589844-5.8125 7.933594-10.007813 17.398437-10.703125 28.453125-2.222657-36.75-42.371094-55.851563-52.347657-60.039063-.890624-.371094-.976562-1.597656-.148437-2.109375 27.734375-17.085937 15.1875-42.226562 11.601563-48.265625-.386719-.65625-.074219-1.515625.652343-1.738281 14.46875-4.394531 19.53125-24.894531 20.496094-29.53125.109375-.53125.5625-.917969 1.105469-.9375 3.367187-.132813 14.992187-1.585937 18.863281-15.253906.300781-1.078125 1.804687-1.167969 2.230469-.136719 1.519531 3.691406 4.53125 9.035156 10.027344 12.425781 2.097656 1.300781 4.554687 2.308594 7.429687 2.832031.476563.09375.863281.445313.964844.925782.890625 4.335937 5.902343 25.234375 20.527343 29.675781.726563.222656 1.042969 1.082031.652344 1.738281-3.585937 6.039063-16.125 31.167969 11.582032 48.257813.832031.511719.742187 1.738281-.164063 2.113281zm0 0" fill="#6dc54a"/><path d="m222.390625 360.03125c-7.089844 2.917969-29.28125 13.136719-42.769531 31.589844-13.195313-18.441406-34.917969-28.660156-41.886719-31.585938-.890625-.371094-.976563-1.597656-.152344-2.109375 27.734375-17.085937 15.191407-42.226562 11.601563-48.265625-.386719-.65625-.070313-1.515625.65625-1.738281 14.46875-4.394531 19.53125-24.894531 20.496094-29.53125.109374-.53125.5625-.917969 1.105468-.9375 1.789063-.074219 5.910156-.511719 9.957032-2.964844 2.097656 1.300781 4.554687 2.308594 7.429687 2.832031.476563.09375.863281.445313.964844.925782.890625 4.335937 5.902343 25.234375 20.527343 29.675781.726563.222656 1.042969 1.082031.652344 1.738281-3.585937 6.039063-16.125 31.167969 11.582032 48.257813.832031.511719.742187 1.738281-.164063 2.113281zm0 0" fill="#82cd64"/><path d="m176.089844 431.035156c0 12.039063-7.566406 22.320313-18.210938 26.328125-3.082031 1.167969-6.425781 1.804688-9.921875 1.804688-15.535156 0-28.132812-12.597657-28.132812-28.132813 0-15.542968 12.597656-28.132812 28.132812-28.132812 3.496094 0 6.839844.632812 9.921875 1.792968 10.644532 4.015626 18.210938 14.292969 18.210938 26.339844zm0 0" fill="#d63030"/><path d="m176.089844 431.035156c0 12.039063-7.566406 22.320313-18.210938 26.328125-10.644531-4.007812-18.210937-14.289062-18.210937-26.328125 0-12.046875 7.566406-22.324218 18.210937-26.339844 10.644532 4.015626 18.210938 14.292969 18.210938 26.339844zm0 0" fill="#f44545"/><path d="m222.890625 441.847656c0 11.242188-6.589844 20.941406-16.121094 25.445313-3.640625 1.726562-7.710937 2.691406-12.015625 2.691406-15.542968 0-28.132812-12.59375-28.132812-28.136719 0-15.535156 12.589844-28.132812 28.132812-28.132812 4.304688 0 8.375.964844 12.015625 2.691406 9.527344 4.503906 16.121094 14.203125 16.121094 25.441406zm0 0" fill="#fb5858"/><path d="m222.890625 441.847656c0 11.242188-6.589844 20.941406-16.121094 25.445313-9.527343-4.503907-16.117187-14.203125-16.117187-25.445313 0-11.242187 6.589844-20.9375 16.117187-25.445312 9.527344 4.507812 16.121094 14.207031 16.121094 25.445312zm0 0" fill="#fc7979"/><path d="m179.652344 503.027344c-1.574219.601562-3.21875 1.082031-4.929688 1.402344-15.269531 2.894531-29.992187-7.140626-32.875-22.40625-2.894531-15.269532 7.140625-29.992188 22.40625-32.875 5.363282-1.019532 10.664063-.441407 15.398438 1.402343 8.753906 3.402344 15.609375 11.101563 17.476562 21.003907 2.570313 13.558593-5.050781 26.679687-17.476562 31.472656zm0 0" fill="#c42d2d"/><path d="m179.652344 503.027344c-8.753906-3.402344-15.609375-11.101563-17.476563-21.003906-2.570312-13.554688 5.050781-26.679688 17.476563-31.472657 8.753906 3.402344 15.609375 11.101563 17.476562 21.003907 2.570313 13.558593-5.050781 26.679687-17.476562 31.472656zm0 0" fill="#d63030"/><path d="m312.386719 7.574219 8.753906 2.371093c-2.535156-1.503906-5.492187-2.371093-8.65625-2.371093zm0 0" fill="#5db33a"/><path d="m372.351562 23.824219-51.210937-13.878907c4.980469 2.960938 8.3125 8.382813 8.3125 14.59375v462.921876c0 4-1.382813 7.683593-3.71875 10.582031l21.429687 5.808593c8.523438 2.3125 17.300782-2.726562 19.613282-11.25l5.59375-20.652343v-447.410157c0-.242187-.011719-.484374-.019532-.714843zm0 0" fill="#5db33a"/><path d="m282.371094 51.503906h-227.21875c-4.183594 0-7.574219 3.390625-7.574219 7.574219s3.390625 7.574219 7.574219 7.574219h227.21875c4.183594 0 7.574218-3.390625 7.574218-7.574219s-3.390624-7.574219-7.574218-7.574219zm0 0"/><path d="m282.371094 104.238281h-227.21875c-4.183594 0-7.574219 3.394531-7.574219 7.574219 0 4.183594 3.390625 7.574219 7.574219 7.574219h227.21875c4.183594 0 7.574218-3.390625 7.574218-7.574219 0-4.179688-3.390624-7.574219-7.574218-7.574219zm0 0"/><path d="m282.371094 156.976562h-227.21875c-4.183594 0-7.574219 3.390626-7.574219 7.574219 0 4.183594 3.390625 7.574219 7.574219 7.574219h227.21875c4.183594 0 7.574218-3.390625 7.574218-7.574219 0-4.183593-3.390624-7.574219-7.574218-7.574219zm0 0"/><path d="m55.152344 209.714844c-4.183594 0-7.574219 3.390625-7.574219 7.574218 0 4.183594 3.390625 7.574219 7.574219 7.574219h141.382812c4.183594 0 7.574219-3.390625 7.574219-7.574219 0-4.183593-3.390625-7.574218-7.574219-7.574218zm0 0"/><path d="m282.371094 209.714844h-55.542969c-4.183594 0-7.574219 3.390625-7.574219 7.574218 0 4.183594 3.390625 7.574219 7.574219 7.574219h55.542969c4.183594 0 7.574218-3.390625 7.574218-7.574219 0-4.183593-3.390624-7.574218-7.574218-7.574218zm0 0"/><path d="m472.023438 42.96875-148.035157-40.097656c-3.4375-1.839844-7.449219-2.871094-11.5-2.871094 0 0 0 0-.003906 0h-211.183594c-4.144531 0-7.765625 3.195312-7.886719 7.339844-.128906 4.289062 3.308594 7.808594 7.570313 7.808594 217.566406.375 206.839844-.964844 214.402344 1.085937.195312.121094 6.492187 1.738281 6.492187 8.304687v386.8125c-.664062-1.648437-.890625-3.257812-.941406-4.507812-.148438-4.03125-3.019531-7.414062-6.957031-8.230469-2.089844-.4375-20.53125-4.578125-23.773438-15.242187-1.628906-5.347656-7.816406-7.925782-12.980469-4.886719-14.683593 8.640625-28.277343 6.199219-37.714843-9.117187-3.742188-6.054688-12.769531-5.378907-15.539063 1.191406-2.101562 4.996094-10.402344 23.113281-25.097656 35.515625-6.960938-.820313-14.054688.414062-20.378906 3.65625 8.433594-25.902344 39.78125-40.070313 46.667968-42.898438 6.664063-2.75 7.308594-11.84375 1.25-15.5625-20.800781-12.824219-13.238281-30.742187-9.007812-37.851562 2.898438-4.917969.421875-11.210938-4.976562-12.832031-8.714844-2.65625-13.695313-16.269532-15.257813-23.90625-.730469-3.511719-3.484375-6.1875-7.019531-6.835938-6.605469-1.210938-10.058594-6.472656-11.785156-10.671875-3.164063-7.648437-14.265626-7.011719-16.511719.96875-2.3125 8.136719-8.402344 9.574219-11.835938 9.714844-4.019531.148437-7.402343 3.019531-8.21875 6.945312-.4375 2.101563-4.574219 20.542969-15.238281 23.785157-5.4375 1.632812-7.871094 7.964843-4.96875 12.832031 8.695312 14.664062 6.390625 28.355469-9.039062 37.863281-6.070313 3.753906-5.363282 12.777344 1.191406 15.53125 5.363281 2.25 25.832031 11.652344 38.140625 28.425781-6.59375-.726562-13.320313.398438-19.398438 3.351563-9.988281-11.269532-15.785156-23.972656-17.480469-28.023438-2.765624-6.554687-11.789062-7.289062-15.542968-1.199218-12.347656 20.054687-28.988282 14.289062-37.832032 9.054687-5.183593-3.074219-11.304687-.222656-12.863281 4.949219-3.242187 10.664062-21.691406 14.804687-23.769531 15.242187-3.941406.816407-6.808594 4.199219-6.96875 8.21875-.074219 1.917969-.554688 4.664063-2.382812 7.117188v-389.410157c0-5.1875 4.203124-9.390624 9.390624-9.390624h45.328126c4.148437 0 7.765624-3.195313 7.890624-7.339844.128907-4.292969-3.308593-7.808594-7.570312-7.808594h-45.644531c-13.554688 0-24.542969 10.988281-24.542969 24.539062v462.917969c0 13.554688 10.988281 24.542969 24.539062 24.542969h287.445313c5.859375 0 11.246094-2.066406 15.46875-5.507812l17.226563 4.667968c12.675781 3.4375 25.539062-4.164062 28.90625-16.582031l95.914062-354.070313c1.09375-4.039062-1.292969-8.199218-5.328125-9.292968-4.03125-1.089844-8.195313 1.292968-9.292969 5.332031l-95.914062 354.070313c-1.199219 4.421874-5.765625 7.15625-10.320313 5.921874l-12.773437-3.460937c1.140625-4.910156.570312-470.617187.527344-471.015625l131.160156 35.527344c4.441406 1.207031 7.144531 5.796875 5.914062 10.320312l-10.605468 39.148438c-1.007813 3.71875.765624 7.75 4.324218 9.21875 4.304688 1.773437 9.050782-.660156 10.230469-5.011719l10.667969-39.390625c3.445312-12.664062-4.152344-25.53125-16.566406-28.90625zm-238.699219 343.171875c13.8125 14.582031 31.535156 14.402344 45.554687 8.441406 6.746094 10.492188 19.730469 15.5625 27.546875 17.765625 1.171875 5.410156 4 10.964844 9.058594 15.199219-3.402344 3.019531-6.554687 7.085937-8.371094 12.53125-7.785156 2.101563-21.308593 7.148437-28.246093 17.953125-13.984376-5.945312-31.660157-6.136719-45.464844 8.363281-1.664063-3.210937-3.683594-6.796875-6.085938-10.511719 3.113282-7.039062 3.800782-14.796874 2.21875-22.003906h44.636719c4.179687 0 7.574219-3.394531 7.574219-7.574218 0-4.191407-3.394532-7.574219-7.574219-7.574219h-52.046875c-2.121094-2.554688-4.585938-4.796875-7.324219-6.667969 8.402344-8.621094 14.503907-18.316406 18.523438-25.921875zm-103.996094-28.667969c14.582031-13.816406 14.398437-31.539062 8.441406-45.554687 10.492188-6.746094 15.5625-19.734375 17.765625-27.5625 5.410156-1.160157 10.976563-3.996094 15.195313-9.058594 3.019531 3.40625 7.101562 6.566406 12.535156 8.382813 2.097656 7.785156 7.148437 21.308593 17.953125 28.238281-5.9375 13.996093-6.140625 31.667969 8.363281 45.472656-9.585937 4.957031-22.46875 13.117187-32.519531 24.882813v-65.652344c0-4.191406-3.390625-7.574219-7.574219-7.574219-4.1875 0-7.574219 3.382813-7.574219 7.574219v66.652344c-9.925781-12.25-22.941406-20.703126-32.585937-25.800782zm-96.785156 54.875c7.816406-2.203125 20.8125-7.273437 27.558593-17.765625 14.015626 5.960938 31.730469 6.140625 45.554688-8.441406 3.402344 6.433594 8.300781 14.371094 14.824219 21.894531-2.59375 3.160156-4.664063 6.765625-6.058594 10.695313h-49.613281c-4.191406 0-7.574219 3.382812-7.574219 7.574219 0 4.179687 3.382813 7.574218 7.574219 7.574218h47.683594c.464843 5.1875 2.039062 10.066406 4.496093 14.378906-4.859375 6.363282-8.636719 12.765626-11.414062 18.136719-12.585938-13.210937-29.589844-15.113281-45.472657-8.363281-6.925781-10.804688-20.449218-15.851562-28.234374-17.953125-1.820313-5.445313-4.980469-9.511719-8.382813-12.53125 5.058594-4.234375 7.898437-9.796875 9.058594-15.199219zm-7.503907 84.503906c-5.179687 0-9.390624-4.210937-9.390624-9.390624v-46.105469c1.113281 1.550781 1.972656 3.394531 2.371093 5.589843.648438 3.554688 3.332031 6.3125 6.859375 7.039063 7.625 1.5625 21.234375 6.53125 23.890625 15.257813 1.636719 5.433593 7.96875 7.867187 12.835938 4.96875 8.828125-5.242188 25.488281-11.039063 37.851562 9.019531 3.753907 6.078125 12.824219 5.375 15.5625-1.253907 1.382813-3.382812 5.503907-12.644531 12.390625-22.207031 2.605469 1.847657 5.472656 3.363281 8.542969 4.464844-3.890625 10.683594-2.417969 22.988281 4.359375 32.617187zm106.316407-78.121093c.011719-.023438.023437-.042969.03125-.050781 8.761719-12.074219 26.988281-11.132813 34.449219 1.898437-5.015626 7.09375-7.039063 14.949219-6.777344 21.679687-5.515625 1.667969-10.472656 4.625-14.542969 8.636719-14.84375-2.550781-22.011719-19.882812-13.160156-32.164062zm26.582031 74.558593c-17.96875-12.273437-6.792969-40.882812 14.996094-37.15625 9.816406 1.683594 17.28125 10.316407 17.054687 20.683594-.359375 16.152344-18.589843 25.636719-32.050781 16.472656zm16.269531-52.273437c.285157-14.191406 14.945313-24.007813 28.246094-18.507813 17.246094 7.0625 16.882813 31.914063-.878906 38.292969-5.1875-10.714843-15.527344-18.214843-27.367188-19.785156zm147.671875 46.445313c0 5.179687-4.238281 9.390624-9.394531 9.390624h-113.867187c4.289062-6.09375 6.683593-13.507812 6.511718-21.277343 4.5625-1.402344 8.746094-3.695313 12.328125-6.664063 3.40625 5.875 5.574219 10.792969 6.503907 13.066406 2.742187 6.648438 11.832031 7.316407 15.550781 1.253907 12.371093-20.058594 29.023437-14.261719 37.851562-9.019531 4.875 2.890624 11.183594.480468 12.84375-4.96875 2.648438-8.726563 16.269531-13.695313 23.894531-15.257813 3.515626-.726563 6.199219-3.484375 6.847657-7.019531.203125-1.101563.523437-2.109375.925781-3.042969v43.539063zm0 0"/></svg>