<svg height="512pt" viewBox="0 0 512 512" width="512pt" xmlns="http://www.w3.org/2000/svg"><path d="m196.324219 29.046875-164.726563 136.207031c-15.195312 12.566406-23.992187 31.257813-23.992187 50.976563v224.433593c0 34.902344 28.292969 63.199219 63.195312 63.199219h370.394531c34.902344 0 63.195313-28.296875 63.195313-63.199219v-224.433593c0-19.71875-8.796875-38.410157-23.992187-50.976563l-164.722657-136.207031c-34.632812-28.636719-84.722656-28.636719-119.351562 0zm0 0" fill="#ff437d"/><path d="m503.535156 205.585938v.011718c-2.554687 15.683594-10.707031 30.050782-23.136718 40.320313l-164.722657 136.210937c-34.632812 28.640625-84.726562 28.640625-119.351562 0l-164.730469-136.210937c-12.429688-10.269531-20.570312-24.636719-23.125-40.320313v-.011718c2.554688-15.683594 10.707031-30.058594 23.136719-40.332032l164.71875-136.210937c34.636719-28.628907 84.71875-28.628907 119.351562 0l164.722657 136.210937c12.429687 10.273438 20.582031 24.648438 23.136718 40.332032zm0 0" fill="#db2164"/><path d="m453.691406 120.617188v147.382812l-138.015625 114.128906c-34.632812 28.640625-84.726562 28.640625-119.351562 0l-138.015625-114.121094v-147.390624c0-24.019532 19.476562-43.484376 43.496094-43.484376h308.394531c24.019531 0 43.492187 19.464844 43.492187 43.484376zm0 0" fill="#a1cec8"/><path d="m453.691406 120.617188v114.9375l-138.015625 114.132812c-34.632812 28.640625-84.726562 28.640625-119.351562 0l-138.015625-114.121094v-114.949218c0-24.019532 19.476562-43.484376 43.496094-43.484376h308.394531c24.019531 0 43.492187 19.464844 43.492187 43.484376zm0 0" fill="#d7f4f1"/><path d="m173.53125 207.0625-23.976562-44.832031v44.832031c0 3.011719-3.683594 4.574219-7.25 4.574219-3.679688 0-7.25-1.5625-7.25-4.574219v-72.378906c0-3.121094 3.570312-4.570313 7.25-4.570313 5.242187 0 7.359374 1.113281 10.816406 7.695313l21.523437 41.597656v-44.832031c0-3.125 3.570313-4.460938 7.25-4.460938 3.570313 0 7.25 1.335938 7.25 4.460938v72.488281c0 3.011719-3.683593 4.574219-7.25 4.574219-3.457031 0-6.46875-1.117188-8.363281-4.574219zm0 0"/><path d="m229.292969 165.128906h16.949219c2.902343 0 4.574218 2.789063 4.574218 5.800782 0 2.566406-1.449218 5.578124-4.574218 5.578124h-16.949219v22.414063h31.558593c2.902344 0 4.574219 3.011719 4.574219 6.46875 0 3.011719-1.449219 6.246094-4.574219 6.246094h-39.703124c-3.234376 0-6.355469-1.5625-6.355469-4.574219v-72.378906c0-3.011719 3.121093-4.570313 6.355469-4.570313h39.703124c3.125 0 4.574219 3.234375 4.574219 6.246094 0 3.457031-1.671875 6.464844-4.574219 6.464844h-31.558593zm0 0"/><path d="m354.644531 207.398438c-1.113281 3.34375-5.242187 4.90625-9.480469 4.90625-4.125 0-8.472656-1.5625-9.253906-4.90625l-7.140625-30.113282-7.246093 30.113282c-.78125 3.34375-5.132813 4.90625-9.257813 4.90625-4.238281 0-8.476563-1.5625-9.480469-4.90625l-22.082031-70.148438c-.109375-.335938-.222656-.890625-.222656-1.339844 0-3.234375 5.128906-5.796875 9.257812-5.796875 2.230469 0 4.238281.78125 4.792969 2.898438l17.621094 60.445312 9.480468-38.808593c.667969-2.789063 3.90625-4.015626 7.136719-4.015626 3.125 0 6.359375 1.226563 7.027344 4.015626l9.480469 38.808593 17.621094-60.445312c.558593-2.117188 2.566406-2.898438 4.796874-2.898438 4.125 0 9.253907 2.5625 9.253907 5.796875 0 .449219-.109375 1.003906-.222657 1.339844zm0 0"/><path d="m163.585938 287.738281c0-.417969-.082032-.839843-.25-1.089843l-17.371094-30.039063c-.167969-.421875-.25-.839844-.25-1.089844 0-2.6875 4.277344-4.53125 7.214844-4.53125 1.761718 0 2.601562.667969 3.355468 2.179688l12.757813 24.25 12.835937-24.25c.757813-1.425781 1.511719-2.179688 3.273438-2.179688 2.9375 0 7.214844 1.84375 7.214844 4.53125 0 .25 0 .667969-.25 1.089844l-17.285157 30.039063c-.167969.25-.335937.671874-.335937 1.089843v21.144531c0 2.265626-2.683594 3.441407-5.453125 3.441407-2.6875 0-5.457031-1.175781-5.457031-3.441407zm0 0"/><path d="m218.292969 277.335938h12.753906c2.183594 0 3.441406 2.097656 3.441406 4.363281 0 1.929687-1.089843 4.195312-3.441406 4.195312h-12.753906v16.863281h23.746093c2.183594 0 3.441407 2.269532 3.441407 4.867188 0 2.265625-1.089844 4.699219-3.441407 4.699219h-29.871093c-2.433594 0-4.78125-1.175781-4.78125-3.4375v-54.460938c0-2.265625 2.347656-3.4375 4.78125-3.4375h29.871093c2.351563 0 3.441407 2.433594 3.441407 4.699219 0 2.601562-1.257813 4.863281-3.441407 4.863281h-23.746093zm0 0"/><path d="m256.808594 307.792969c0-.167969.082031-.503907.167968-.839844l16.195313-52.777344c.753906-2.519531 3.859375-3.691406 6.960937-3.691406 3.191407 0 6.292969 1.171875 7.050782 3.691406l16.195312 52.777344c.082032.335937.167969.589844.167969.839844 0 2.601562-3.945313 4.53125-6.882813 4.53125-1.84375 0-3.273437-.585938-3.691406-2.179688l-3.191406-11.160156h-19.210938l-3.191406 11.160156c-.417968 1.59375-1.84375 2.179688-3.691406 2.179688-2.9375 0-6.878906-1.84375-6.878906-4.53125zm30.625-17.367188-7.300782-25.761719-7.296874 25.761719zm0 0"/><path d="m318.5625 254.34375c0-1.761719 1.425781-3.359375 3.527344-3.359375h16.613281c10.992187 0 19.886719 4.195313 19.886719 17.539063 0 9.648437-4.699219 14.851562-10.992188 16.78125l10.992188 20.390624c.335937.421876.417968 1.007813.417968 1.34375 0 2.769532-3.609374 5.707032-6.796874 5.707032-1.507813 0-2.9375-.921875-3.773438-2.601563l-11.917969-23.160156h-7.046875v21.898437c0 2.265626-2.683594 3.441407-5.453125 3.441407-2.6875 0-5.457031-1.175781-5.457031-3.441407zm10.910156 6.207031v17.875h9.230469c5.453125 0 8.976563-2.265625 8.976563-8.894531s-3.523438-8.980469-8.976563-8.980469zm0 0"/><path d="m45.234375 38.335938c4.203125 0 7.605469-3.40625 7.605469-7.605469v-21.289063c0-4.199218-3.402344-7.605468-7.605469-7.605468-4.199219 0-7.601563 3.40625-7.601563 7.605468v21.289063c0 4.199219 3.402344 7.605469 7.601563 7.605469zm0 0"/><path d="m45.234375 92.308594c4.203125 0 7.605469-3.40625 7.605469-7.605469v-21.289063c0-4.199218-3.402344-7.605468-7.605469-7.605468-4.199219 0-7.601563 3.40625-7.601563 7.605468v21.289063c0 4.199219 3.402344 7.605469 7.601563 7.605469zm0 0"/><path d="m61.578125 54.675781h21.289063c4.199218 0 7.605468-3.402343 7.605468-7.601562 0-4.203125-3.40625-7.605469-7.605468-7.605469h-21.289063c-4.199219 0-7.605469 3.402344-7.605469 7.605469 0 4.199219 3.40625 7.601562 7.605469 7.601562zm0 0"/><path d="m7.605469 54.675781h21.289062c4.199219 0 7.605469-3.402343 7.605469-7.601562 0-4.203125-3.40625-7.605469-7.605469-7.605469h-21.289062c-4.199219 0-7.605469 3.402344-7.605469 7.605469 0 4.199219 3.40625 7.601562 7.605469 7.601562zm0 0"/><path d="m149.550781 207.0625v-44.832031l23.976563 44.832031c1.898437 3.457031 4.910156 4.574219 8.367187 4.574219 3.566407 0 7.246094-1.5625 7.246094-4.574219v-72.488281c0-3.125-3.679687-4.460938-7.246094-4.460938-3.683593 0-7.25 1.335938-7.25 4.460938v44.832031l-21.523437-41.597656c-3.457032-6.582032-5.578125-7.695313-10.820313-7.695313-3.679687 0-7.246093 1.449219-7.246093 4.570313v72.378906c0 3.011719 3.570312 4.574219 7.246093 4.574219 3.570313 0 7.25-1.5625 7.25-4.574219zm0 0"/><path d="m265.425781 205.390625c0-3.457031-1.671875-6.46875-4.574219-6.46875h-31.558593v-22.414063h16.949219c3.125 0 4.574218-3.011718 4.574218-5.578124 0-3.011719-1.671875-5.800782-4.574218-5.800782h-16.949219v-22.304687h31.558593c2.902344 0 4.574219-3.007813 4.574219-6.464844 0-3.011719-1.449219-6.246094-4.574219-6.246094h-39.703124c-3.234376 0-6.355469 1.558594-6.355469 4.570313v72.378906c0 3.011719 3.121093 4.574219 6.355469 4.574219h39.703124c3.125 0 4.574219-3.234375 4.574219-6.246094zm0 0"/><path d="m367.695312 130.109375c-2.230468 0-4.242187.78125-4.796874 2.902344l-17.621094 60.445312-9.480469-38.8125c-.667969-2.785156-3.902344-4.011719-7.027344-4.011719-3.230469 0-6.46875 1.226563-7.136719 4.011719l-9.480468 38.8125-17.621094-60.445312c-.558594-2.121094-2.5625-2.902344-4.792969-2.902344-4.128906 0-9.257812 2.566406-9.257812 5.800781 0 .445313.109375 1.003906.222656 1.339844l22.082031 70.148438c1.003906 3.34375 5.242188 4.90625 9.480469 4.90625 4.125 0 8.476563-1.5625 9.257813-4.90625l7.246093-30.113282 7.140625 30.113282c.78125 3.34375 5.128906 4.90625 9.253906 4.90625 4.238282 0 8.367188-1.5625 9.480469-4.90625l22.082031-70.148438c.109376-.335938.222657-.894531.222657-1.339844 0-3.234375-5.128907-5.800781-9.253907-5.800781zm0 0"/><path d="m185.152344 250.988281c-1.761719 0-2.515625.753907-3.273438 2.179688l-12.835937 24.25-12.757813-24.25c-.753906-1.511719-1.59375-2.179688-3.355468-2.179688-2.9375 0-7.214844 1.84375-7.214844 4.53125 0 .25.082031.667969.25 1.089844l17.371094 30.039063c.167968.25.25.671874.25 1.089843v21.144531c0 2.265626 2.769531 3.441407 5.457031 3.441407 2.765625 0 5.453125-1.175781 5.453125-3.441407v-21.144531c0-.417969.167968-.839843.335937-1.089843l17.285157-30.039063c.25-.421875.25-.839844.25-1.089844 0-2.6875-4.277344-4.53125-7.214844-4.53125zm0 0"/><path d="m242.039062 260.550781c2.183594 0 3.441407-2.265625 3.441407-4.863281 0-2.265625-1.089844-4.699219-3.441407-4.699219h-29.871093c-2.433594 0-4.78125 1.171875-4.78125 3.4375v54.460938c0 2.265625 2.347656 3.4375 4.78125 3.4375h29.871093c2.351563 0 3.441407-2.433594 3.441407-4.699219 0-2.601562-1.257813-4.867188-3.441407-4.867188h-23.746093v-16.863281h12.753906c2.351563 0 3.441406-2.265625 3.441406-4.195312 0-2.265625-1.257812-4.363281-3.441406-4.363281h-12.753906v-16.785157zm0 0"/><path d="m287.183594 254.175781c-.757813-2.519531-3.859375-3.691406-7.050782-3.691406-3.105468 0-6.207031 1.171875-6.960937 3.691406l-16.195313 52.777344c-.085937.335937-.167968.671875-.167968.839844 0 2.6875 3.941406 4.53125 6.878906 4.53125 1.847656 0 3.273438-.585938 3.691406-2.179688l3.191406-11.160156h19.214844l3.1875 11.160156c.421875 1.59375 1.847656 2.179688 3.695313 2.179688 2.933593 0 6.878906-1.929688 6.878906-4.53125 0-.25-.082031-.503907-.167969-.839844zm-14.351563 36.25 7.300781-25.761719 7.300782 25.761719zm0 0"/><path d="m347.597656 285.304688c6.292969-1.929688 10.992188-7.132813 10.992188-16.78125 0-13.339844-8.894532-17.539063-19.886719-17.539063h-16.613281c-2.097656 0-3.527344 1.597656-3.527344 3.359375v54.539062c0 2.265626 2.769531 3.441407 5.457031 3.441407 2.765625 0 5.453125-1.175781 5.453125-3.441407v-21.898437h7.046875l11.917969 23.160156c.835938 1.675781 2.261719 2.601563 3.773438 2.601563 3.191406 0 6.796874-2.9375 6.796874-5.707032 0-.335937-.082031-.921874-.417968-1.34375zm-8.894531-6.878907h-9.230469v-17.875h9.230469c5.453125 0 8.976563 2.351563 8.976563 8.980469s-3.523438 8.894531-8.976563 8.894531zm0 0"/><path d="m511.074219 204.625c-.007813-.066406-.015625-.132812-.027344-.195312-2.820313-17.535157-11.875-33.523438-25.804687-45.035157l-23.945313-19.800781v-18.980469c0-28.167969-22.921875-51.085937-51.097656-51.085937h-33.628907l-56.046874-46.34375c-37.390626-30.910156-91.660157-30.910156-129.042969 0l-56.046875 46.34375h-33.628906c-28.175782 0-51.097657 22.917968-51.097657 51.085937v18.96875l-23.957031 19.8125c-13.929688 11.511719-22.980469 27.507813-25.796875 45.054688-.007813.050781-.015625.101562-.023437.152343-.601563 3.816407-.92578175 7.699219-.92578175 11.628907v134.621093c0 4.199219 3.40234375 7.601563 7.60156275 7.601563s7.605469-3.402344 7.605469-7.601563v-111.042968c3.359374 4.382812 7.222656 8.402344 11.539062 11.96875l164.730469 136.210937c18.691406 15.464844 41.601562 23.191407 64.515625 23.191407 22.914062 0 45.832031-7.730469 64.527344-23.191407l164.71875-136.207031c4.320312-3.570312 8.1875-7.597656 11.550781-11.984375v200.871094c0 30.652343-24.945313 55.589843-55.601563 55.589843h-370.390625c-30.652343 0-55.589843-24.9375-55.589843-55.589843v-59.402344c0-4.199219-3.40625-7.601563-7.605469-7.601563s-7.60156275 3.402344-7.60156275 7.601563v59.402344c0 39.039062 31.75781275 70.796875 70.79687475 70.796875h370.390625c39.042969 0 70.808594-31.757813 70.808594-70.796875v-224.4375c0-3.921875-.324219-7.796875-.925781-11.605469zm-494.875.945312c2.464843-13.410156 9.53125-25.601562 20.242187-34.457031l14.265625-11.796875v92.535156l-14.269531-11.796874c-10.601562-8.757813-17.746094-20.96875-20.238281-34.484376zm294.632812 170.699219c-31.777343 26.277344-77.894531 26.277344-109.660156 0l-135.257813-111.84375v-143.808593c0-19.785157 16.101563-35.882813 35.890626-35.882813h183.6875c4.199218 0 7.601562-3.402344 7.601562-7.601563 0-4.199218-3.402344-7.605468-7.601562-7.605468h-126.191407l41.871094-34.625c31.765625-26.265625 77.886719-26.265625 109.660156 0l41.871094 34.625h-36.792969c-4.203125 0-7.605468 3.40625-7.605468 7.605468 0 4.199219 3.402343 7.601563 7.605468 7.601563h94.289063c19.792969 0 35.890625 16.097656 35.890625 35.882813v143.804687zm164.722657-136.210937-14.257813 11.789062v-92.519531l14.257813 11.789063c10.714843 8.855468 17.78125 21.046874 20.25 34.457031-2.492188 13.511719-9.644532 25.71875-20.25 34.484375zm0 0"/><path d="m50.0625 470.992188c.902344 0 1.820312-.160157 2.710938-.503907l135.34375-51.703125c3.925781-1.5 5.890624-5.894531 4.390624-9.816406-1.5-3.925781-5.894531-5.890625-9.816406-4.390625l-135.34375 51.703125c-3.921875 1.5-5.886718 5.894531-4.390625 9.820312 1.160157 3.027344 4.046875 4.890626 7.105469 4.890626zm0 0"/><path d="m319.496094 408.96875c-1.5 3.921875.464844 8.316406 4.390625 9.816406l135.339843 51.703125c.894532.339844 1.8125.503907 2.714844.503907 3.058594 0 5.945313-1.863282 7.105469-4.890626 1.496094-3.925781-.46875-8.320312-4.390625-9.820312l-135.34375-51.703125c-3.917969-1.496094-8.316406.464844-9.816406 4.390625zm0 0"/><path d="m431.867188 363.40625c4.199218 0 7.605468-3.40625 7.605468-7.605469v-21.289062c0-4.199219-3.40625-7.605469-7.605468-7.605469-4.199219 0-7.601563 3.40625-7.601563 7.605469v21.289062c0 4.199219 3.402344 7.605469 7.601563 7.605469zm0 0"/><path d="m424.265625 409.773438c0 4.199218 3.402344 7.605468 7.601563 7.605468 4.199218 0 7.605468-3.40625 7.605468-7.605468v-21.289063c0-4.199219-3.40625-7.605469-7.605468-7.605469-4.199219 0-7.601563 3.40625-7.601563 7.605469zm0 0"/><path d="m469.5 379.746094c4.199219 0 7.601562-3.402344 7.601562-7.601563s-3.402343-7.605469-7.601562-7.605469h-21.292969c-4.199219 0-7.601562 3.40625-7.601562 7.605469s3.402343 7.601563 7.601562 7.601563zm0 0"/><path d="m415.527344 379.746094c4.199218 0 7.605468-3.402344 7.605468-7.601563s-3.40625-7.605469-7.605468-7.605469h-21.289063c-4.203125 0-7.605469 3.40625-7.605469 7.605469s3.402344 7.601563 7.605469 7.601563zm0 0"/></svg>